<svg xmlns="http://www.w3.org/2000/svg" xmlns:xlink="http://www.w3.org/1999/xlink" width="4736.775" height="1160.855" viewBox="0 0 4736.775 1160.855">
  <defs>
    <style>
      .a {
        fill: url(#a);
      }

      .b {
        fill: url(#b);
      }

      .c {
        fill: url(#c);
      }

      .d {
        fill: url(#d);
      }

      .e {
        fill: url(#e);
      }

      .f {
        fill: #3d3d3d;
      }
    </style>
    <linearGradient id="a" x1="695.31" y1="977.896" x2="713.974" y2="977.896" gradientUnits="userSpaceOnUse">
      <stop offset="0" stop-color="#0071bc"/>
      <stop offset="1" stop-color="#00a99d"/>
    </linearGradient>
    <linearGradient id="b" x1="266.14" y1="613.84" x2="1083.25" y2="613.84" xlink:href="#a"/>
    <linearGradient id="c" x1="193.04" y1="505.338" x2="983.06" y2="505.338" xlink:href="#a"/>
    <linearGradient id="d" x1="696.5" y1="273.111" x2="696.5" y2="978.138" gradientUnits="userSpaceOnUse">
      <stop offset="0" stop-color="#00a99d"/>
      <stop offset="1" stop-color="#0071bc"/>
    </linearGradient>
    <linearGradient id="e" x1="813.929" y1="707.657" x2="1046.611" y2="940.338" xlink:href="#d"/>
  </defs>
  <g>
    <g>
      <path class="a" d="M713.974,977.654q-9.357.483-18.664.484"/>
      <path class="b" d="M528.18,1028.851a432.574,432.574,0,1,1,555.07-595.358l-40.9,21.051A386.584,386.584,0,1,0,546.3,986.568Z"/>
      <path class="c" d="M249.939,878.672A512.305,512.305,0,0,1,734.492,132.851,515.015,515.015,0,0,1,983.06,213.828l-24.9,38.676a465.995,465.995,0,0,0-466.151-22.726A465.779,465.779,0,0,0,290.84,857.622Z"/>
      <g>
        <path class="d" d="M1014,471.794A352.678,352.678,0,1,0,696.31,978.138l17.762-.461,0,.129c26.7-.458,55.971-8.21,78.293-20.736,29.324-16.455,45.486-40.441,45.511-67.538.028-30.363-13.315-52.943-39.659-67.108-21.309-11.459-48.3-16.162-74.395-20.711l-3.451-.6c-49.457-8.345-70.187-15.082-70.532-35.211-.085-4.931-.343-19.936,20.37-30.8,11.743-6.16,28.722-10.013,45.435-10.313l1.175,0c29.953,0,53.016,4.956,68.113,28.324l7.426,11.5L833.2,739.515l-8.454-12.164c-14.166-20.381-31-34.008-51.466-41.66-20.076-7.507-40.763-8.207-58.349-7.907a173.32,173.32,0,0,0-48.9,7.774c-18.527,5.931-33.469,14.8-44.412,26.355-14.247,15.048-21.071,33.8-20.282,55.725.513,27.2,13.8,47.595,39.489,60.606,20.66,10.463,46.6,15.067,71.73,19.53l.712.123c47.509,8.245,78.476,15.5,76.142,40.282-2.472,26.258-46.4,43.108-76.81,43.631l0-.1a306.5,306.5,0,1,1,290.237-321.942l45.938-2.379A350.3,350.3,0,0,0,1014,471.794Z"/>
        <path class="e" d="M847.583,973.108l-5.048-294.057,104.078-1.787c45.621-.779,84.285,14.126,111.771,43.116,24.019,25.335,38.091,60.134,39.621,97.99v.01c1.65,41.612-12.455,81.408-38.7,109.183-26.33,27.869-63.554,43-107.648,43.758ZM891.869,725.6l3.416,198.915,55.557-.954c29.87-.513,54.869-10.509,72.295-28.908,17.823-18.819,27.433-46.1,26.364-74.844-.978-25.916-10.334-49.548-26.344-66.535-18.158-19.268-44.361-29.159-75.73-28.628Z"/>
      </g>
    </g>
    <g>
      <path class="f" d="M1750.3,598.545c-.4,72.791-45.743,143.992-141.207,143.992s-141.606-70.8-141.606-143.992c0-80.746,54.1-144.787,142-144.787C1703.76,454.156,1750.7,524.958,1750.3,598.545ZM1609.489,485.58c-70.8,0-107.4,52.107-107.4,112.965,0,56.484,34.208,111.375,107.4,111.375s106.2-56.483,106.2-111.375C1716.091,542.063,1682.28,486.375,1609.489,485.58Z"/>
      <path class="f" d="M1797.227,541.267h31.026l1.591,37.787c15.512-26.252,44.55-41.367,75.575-41.367,56.483,1.193,97.851,40.971,97.851,101.43,0,62.053-40.97,102.226-99.839,102.226-27.844,0-58.869-11.933-74.383-39.777V829.648h-31.821Zm173.426,98.647c0-44.153-29.037-70.406-69.212-70.406-40.969,0-68.813,30.23-68.813,70.406s29.037,70.4,68.813,70.8C1940.82,710.714,1970.653,684.064,1970.653,639.914Z"/>
      <path class="f" d="M2226.41,705.545c-19.889,23.468-54.1,35-84.724,35-60.859,0-103.419-40.175-103.419-102.625,0-59.265,42.56-101.827,101.828-101.827,60.062,0,105.805,36.992,98.248,115.353H2071.281c3.58,36.2,33.412,58.869,71.2,58.869,22.275,0,49.323-8.752,62.45-24.662l21.877,19.889ZM2207.317,624.4c-1.591-38.186-27.843-58.87-66.427-58.87-34.208,0-64.04,20.684-69.609,58.472h136.036Z"/>
      <path class="f" d="M2283.684,540.073h29.833l1.59,31.424c17.105-23.468,40.97-34.208,67.223-34.208,49.721,0,86.316,33.412,86.316,91.09V736.968h-32.618V628.775c0-37.787-22.274-61.255-59.665-61.255-35.8.4-60.46,28.638-60.46,64.04V736.968h-32.219V540.073Z"/>
      <path class="f" d="M2730.761,483.591c-35.4,0-73.189,13.922-73.189,47.731,0,30.231,34.605,38.982,75.576,45.744,55.685,8.75,110.578,19.889,110.578,82.734-.4,62.45-60.062,82.737-113.363,82.737-49.322,0-96.26-17.9-117.739-64.438l28.639-16.707c17.9,33.016,55.289,48.926,89.5,48.926,33.809,0,78.758-10.74,78.758-51.711.4-34.605-38.584-44.549-80.35-50.914-53.7-8.352-105.806-20.684-105.806-77.166-.795-58.074,58.472-77.961,106.6-77.961,41.369,0,80.746,8.352,105.409,50.515l-26.252,16.309C2794.005,495.126,2761.787,483.988,2730.761,483.591Z"/>
      <path class="f" d="M3052.941,737.763l-.795-35.8c-15.514,27.049-45.346,39.778-72.393,39.778-56.484,0-100.634-38.983-100.634-103.022,0-63.643,44.947-101.828,101.031-101.431,29.435,0,58.473,13.525,72.791,38.982l.4-35.8h31.823v196.5h-31.424Zm-71.6-169.448c-38.98,0-70.4,27.843-70.4,71.6s31.424,71.994,70.4,71.994c94.668,0,94.668-143.991.4-143.991Z"/>
      <path class="f" d="M3144.818,540.073h29.834l1.59,31.424c17.105-23.468,40.97-34.208,67.222-34.208,49.721,0,86.317,33.412,86.317,91.09V736.968h-32.617V628.775c0-37.787-22.276-61.255-59.666-61.255-35.8.4-60.459,28.638-60.459,64.04V736.968h-32.221V540.073Z"/>
      <path class="f" d="M3495.636,458.134h101.432c94.668,0,140.014,67.62,140.014,136.434,0,71.2-42.563,142.4-140.014,142.4H3495.636V458.134Zm206.84,136.036c0-51.71-34.209-102.624-105.408-102.624h-66.826V702.363h66.826C3671.052,702.363,3702.476,647.47,3702.476,594.17Z"/>
      <path class="f" d="M3822.2,480.807c0,28.241-42.957,28.241-42.957-.4C3779.244,452.167,3822.2,452.167,3822.2,480.807Zm-38.186,256.161h32.617V539.676h-32.617Z"/>
      <path class="f" d="M4052.107,705.545c-19.889,23.468-54.1,35-84.725,35-60.857,0-103.418-40.175-103.418-102.625,0-59.265,42.561-101.827,101.828-101.827,60.063,0,105.805,36.992,98.249,115.353H3896.978c3.58,36.2,33.412,58.869,71.2,58.869,22.274,0,49.322-8.752,62.449-24.662l21.877,19.889ZM4033.015,624.4c-1.592-38.186-27.844-58.87-66.428-58.87-34.209,0-64.041,20.684-69.609,58.472h136.037Z"/>
      <path class="f" d="M4200.867,824.078c33.81,0,69.213-12.33,69.213-46.537,0-31.823-32.221-47.334-68.815-47.334-61.654,0-103.816-35.8-103.816-97.057,0-64.835,53.3-97.452,103.816-97.452,17.9,0,41.367,4.774,55.688,14.717l21.082-25.457,23.07,18.3-22.275,26.252c15.513,17.5,25.457,35,25.457,63.642,0,33.414-17.1,67.621-55.289,79.951,38.185,11.139,54.1,35.8,54.1,64.041,0,50.914-50.515,76.77-102.623,76.77-59.267,0-101.828-31.028-100.635-83.93h31.424C4131.259,808.168,4165.068,823.681,4200.867,824.078Zm.8-122.512c41.765,0,70.8-30.23,70.8-68.018,0-44.947-34.209-68.018-71.2-68.018-35,0-71.6,21.878-71.6,67.62C4130.462,678.1,4162.285,701.566,4201.664,701.566Z"/>
      <path class="f" d="M4441.509,536.1c60.063,0,102.227,42.163,102.227,103.021,0,59.666-42.959,101.431-102.227,101.431-58.869,0-101.828-41.765-101.828-101.431C4339.681,578.259,4383.037,536.1,4441.509,536.1Zm.4,29.833c-40.176,0-69.61,29.434-69.61,73.188,0,41.369,29.037,70.8,69.211,70.8,40.573,0,69.61-29.434,70.006-70.8C4511.515,595.363,4481.287,565.929,4441.908,565.929Z"/>
    </g>
  </g>
</svg>
